<?xml version="1.0" standalone="no"?>
<!DOCTYPE svg PUBLIC "-//W3C//DTD SVG 20010904//EN"
 "http://www.w3.org/TR/2001/REC-SVG-20010904/DTD/svg10.dtd">
<svg version="1.0" xmlns="http://www.w3.org/2000/svg"
 width="116.000000pt" height="116.000000pt" viewBox="0 0 116.000000 116.000000"
 preserveAspectRatio="xMidYMid meet">
<metadata>
Created by potrace 1.14, written by Peter Selinger 2001-2017
</metadata>
<g transform="translate(0.000000,116.000000) scale(0.100000,-0.100000)"
fill="#000000" stroke="none">
<path d="M288 1154 c-2 -1 -22 -4 -45 -5 -24 -2 -39 -7 -37 -13 2 -6 5 -22 8
-36 2 -14 29 -144 60 -290 54 -262 67 -324 106 -510 12 -52 23 -106 25 -120 3
-14 7 -36 10 -50 3 -14 9 -44 14 -68 5 -24 11 -45 14 -48 3 -3 29 -1 59 5 29
6 64 13 78 15 14 2 24 9 23 17 -1 8 -23 118 -48 244 -26 127 -48 239 -51 250
-15 80 -106 518 -113 549 -5 21 -14 43 -20 49 -9 9 -76 19 -83 11z"/>
<path d="M755 878 c-17 -10 -146 -137 -212 -209 l-22 -24 19 -73 c17 -68 33
-102 49 -102 3 0 31 36 61 81 58 86 62 87 75 6 5 -25 62 -317 80 -407 2 -8 4
-26 4 -39 1 -23 3 -24 62 -17 83 8 92 17 85 82 -3 29 -10 71 -15 95 -6 24 -13
60 -16 79 -3 19 -14 85 -25 145 -11 61 -22 124 -25 140 -2 17 -7 40 -9 51 -2
12 -7 39 -10 60 -21 134 -44 165 -101 132z"/>
</g>
</svg>
